<?xml version="1.0" encoding="UTF-8"?>
<svg xmlns="http://www.w3.org/2000/svg" version="1.1" viewBox="0 0 690 770">
  <!-- Generator: Adobe Illustrator 30.0.0, SVG Export Plug-In . SVG Version: 2.1.1 Build 123)  -->
  <defs>
    <style>
      .st0 {
        fill: #43464a;
      }

      .st1 {
        fill: #fff;
      }

      .st2 {
        display: none;
      }

      .st3 {
        fill: #7e7f82;
      }
    </style>
  </defs>
  <g id="Ebene_1" class="st2">
    <g>
      <rect class="st1" x="-37.9" y="-16.6" width="765.7" height="688.7"/>
      <path d="M727.2-16v687.4H-37.2V-16h764.4M728.5-17.3H-38.5v690h767V-17.3h0Z"/>
    </g>
  </g>
  <g id="Ebene_2">
    <g>
      <path class="st0" d="M20,765c-8.3,0-15-6.7-15-15V20c0-8.3,6.7-15,15-15h405v760H20Z"/>
      <path class="st3" d="M420,10v750H20c-5.5,0-10-4.5-10-10V20c0-5.5,4.5-10,10-10h400M430,0H20C9,0,0,9,0,20v730c0,11.1,9,20,20,20h410V0h0Z"/>
    </g>
    <g>
      <path class="st0" d="M445,765v-240h240v225c0,8.3-6.7,15-15,15h-225Z"/>
      <path class="st3" d="M680,530v220c0,5.5-4.5,10-10,10h-220v-230h230M690,520h-250v250h230c11,0,20-9,20-20v-230h0Z"/>
    </g>
    <g>
      <path class="st0" d="M445,245V5h225c8.3,0,15,6.7,15,15v225h-240Z"/>
      <path class="st3" d="M670,10c5.5,0,10,4.5,10,10v220h-230V10h220M670,0h-230v250h250V20c0-11-9-20-20-20h0Z"/>
    </g>
    <g>
      <rect class="st0" x="445" y="265" width="240" height="240"/>
      <path class="st3" d="M680,270v230h-230v-230h230M690,260h-250v250h250v-250h0Z"/>
    </g>
  </g>
</svg>